<?xml version="1.0" standalone="no"?>
<!DOCTYPE svg PUBLIC "-//W3C//DTD SVG 20010904//EN"
 "http://www.w3.org/TR/2001/REC-SVG-20010904/DTD/svg10.dtd">
<svg version="1.0" xmlns="http://www.w3.org/2000/svg"
 width="512.000000pt" height="512.000000pt" viewBox="0 0 512.000000 512.000000"
 preserveAspectRatio="xMidYMid meet">

<g transform="translate(0.000000,512.000000) scale(0.100000,-0.100000)"
fill="#000000" stroke="none">
<path d="M368 5109 c-86 -12 -164 -54 -234 -123 -70 -70 -108 -144 -123 -237
-15 -89 -15 -4289 0 -4378 15 -93 53 -167 123 -237 72 -72 147 -110 243 -124
93 -13 4273 -13 4366 0 96 14 171 52 243 124 68 68 107 141 123 230 15 81 15
4293 0 4385 -15 93 -53 167 -123 237 -72 72 -147 110 -243 124 -84 12 -4292
11 -4375 -1z m2407 -604 c581 -94 1031 -521 1160 -1100 26 -114 31 -382 10
-506 -49 -296 -183 -556 -395 -769 -165 -165 -343 -274 -562 -344 -153 -49
-265 -66 -428 -66 -163 0 -275 17 -428 66 -219 70 -397 179 -562 344 -198 198
-323 430 -385 710 -22 101 -31 355 -16 461 88 620 553 1100 1166 1203 109 19
330 19 440 1z m-1184 -3044 c129 -10 192 -31 246 -83 67 -65 114 -230 93 -325
-14 -59 -32 -89 -71 -112 l-30 -19 28 -7 c82 -20 141 -114 150 -239 7 -94 -1
-138 -34 -176 -52 -62 -107 -76 -368 -95 l-90 -6 -83 353 c-45 194 -82 372
-82 395 0 55 42 93 102 93 60 0 89 -35 113 -137 l18 -83 43 0 c63 0 93 15 110
55 17 43 11 93 -19 148 -37 66 -55 72 -199 69 -70 -2 -145 2 -167 8 -45 12
-89 57 -126 130 l-24 48 137 -4 c75 -3 189 -9 253 -13z m1329 -47 c24 -10 51
-31 64 -51 18 -27 25 -31 30 -18 13 35 144 72 161 46 3 -5 -13 -168 -35 -363
-35 -310 -43 -359 -66 -406 -35 -72 -89 -103 -189 -110 -84 -5 -137 9 -177 46
-70 65 -54 182 24 182 43 0 66 -16 73 -52 12 -61 17 -69 42 -79 54 -20 85 26
98 148 l6 63 -27 -25 c-50 -47 -137 -55 -205 -19 -15 7 -36 33 -48 57 -18 38
-21 61 -21 183 0 165 12 249 45 313 28 55 42 69 92 87 51 18 85 17 133 -2z
m1115 -64 c-3 -10 -53 -131 -110 -267 -111 -266 -128 -293 -177 -274 -15 5
-29 19 -33 31 -4 12 18 124 55 275 l62 255 105 0 c99 0 104 -1 98 -20z m-446
-24 c61 -32 81 -94 61 -191 -7 -35 -21 -67 -36 -81 -29 -30 -77 -31 -105 -3
-18 18 -20 29 -15 73 7 59 -2 79 -34 74 -34 -5 -65 -52 -65 -99 0 -38 6 -45
82 -115 92 -84 109 -118 99 -197 -12 -107 -96 -219 -184 -245 -51 -16 -130
-15 -162 1 -57 29 -82 104 -64 196 l7 31 73 0 74 0 0 -54 c0 -46 3 -56 20 -61
43 -14 80 29 80 92 0 45 -15 65 -96 126 -78 58 -99 99 -98 189 3 167 130 297
280 284 29 -2 66 -12 83 -20z m-1045 -99 c23 -23 23 -23 30 -421 4 -219 6
-400 3 -403 -3 -2 -31 -5 -62 -5 -48 -1 -61 3 -82 25 l-26 25 -24 -28 c-65
-77 -221 -60 -268 29 -9 18 -25 147 -44 367 -17 186 -33 354 -35 372 l-5 32
104 0 103 0 6 -77 c4 -43 13 -193 21 -333 9 -140 21 -267 27 -283 13 -35 50
-45 83 -23 25 16 25 18 24 149 -1 72 -4 215 -8 317 -7 200 -2 241 32 265 33
23 94 19 121 -8z m1230 -478 c45 -35 33 -106 -23 -128 -77 -33 -141 76 -75
128 15 12 37 21 49 21 12 0 34 -9 49 -21z"/>
<path d="M2241 3753 c-18 -9 -42 -31 -52 -47 -18 -29 -19 -62 -19 -586 0 -529
1 -556 19 -586 26 -42 99 -71 144 -57 26 8 771 474 853 533 53 39 71 119 39
179 -10 20 -131 102 -433 294 -231 147 -432 271 -446 277 -38 14 -66 12 -105
-7z"/>
<path d="M1639 720 l26 -140 55 7 c80 8 100 30 100 107 0 113 -50 164 -160
165 l-46 1 25 -140z"/>
<path d="M2866 1262 c-30 -59 -49 -329 -26 -373 16 -28 75 -26 94 4 22 33 38
139 39 258 2 120 -6 139 -59 139 -27 0 -36 -6 -48 -28z"/>
</g>
</svg>
