<?xml version="1.0" standalone="no"?>
<!DOCTYPE svg PUBLIC "-//W3C//DTD SVG 20010904//EN"
 "http://www.w3.org/TR/2001/REC-SVG-20010904/DTD/svg10.dtd">
<svg version="1.0" xmlns="http://www.w3.org/2000/svg"
 width="225.000000pt" height="225.000000pt" viewBox="0 0 225.000000 225.000000"
 preserveAspectRatio="xMidYMid meet">

<g transform="translate(0.000000,225.000000) scale(0.100000,-0.100000)"
fill="#000000" stroke="none">
<path d="M1 2083 l0 -168 18 57 c24 74 50 115 109 170 56 53 78 65 152 89 l55
18 -167 0 -168 1 1 -167z"/>
<path d="M1972 2231 c74 -24 115 -50 170 -109 53 -56 65 -78 89 -152 l18 -55
0 168 1 167 -167 -1 -168 0 57 -18z"/>
<path d="M1 168 l-1 -168 168 1 167 0 -55 18 c-74 24 -96 36 -152 89 -59 55
-85 96 -109 170 l-18 57 0 -167z"/>
<path d="M2240 315 c0 -40 -46 -130 -91 -180 -59 -64 -101 -91 -177 -116 l-57
-18 168 0 167 -1 0 165 c0 91 -2 165 -5 165 -3 0 -5 -7 -5 -15z"/>
</g>
</svg>
