<?xml version="1.0" standalone="no"?>
<!DOCTYPE svg PUBLIC "-//W3C//DTD SVG 20010904//EN"
 "http://www.w3.org/TR/2001/REC-SVG-20010904/DTD/svg10.dtd">
<svg version="1.0" xmlns="http://www.w3.org/2000/svg"
 width="3840.000000pt" height="3964.000000pt" viewBox="0 0 3840.000000 3964.000000"
 preserveAspectRatio="xMidYMid meet">

<g transform="translate(0.000000,3964.000000) scale(0.100000,-0.100000)"
fill="#000000" stroke="none">
<path d="M15765 28999 c-3036 -36 -5856 -418 -8343 -1130 -266 -76 -343 -104
-489 -178 -565 -284 -919 -807 -993 -1466 -15 -133 -12 -367 5 -502 70 -535
359 -1003 795 -1286 186 -120 392 -205 617 -253 92 -20 159 -27 303 -31 299
-9 442 15 948 158 1702 481 3560 778 5657 904 1220 73 2688 77 3975 10 3841
-200 7490 -979 10320 -2203 597 -258 1212 -565 1712 -854 318 -184 328 -189
453 -249 254 -122 403 -158 682 -166 225 -7 331 4 518 52 316 81 571 225 809
454 451 437 627 1041 506 1743 -75 441 -282 794 -625 1071 -128 103 -240 176
-501 325 -2636 1502 -5983 2590 -9714 3156 -2189 332 -4280 473 -6635 445z"/>
<path d="M15190 22400 c-2006 -55 -3705 -277 -5550 -726 -512 -125 -1234 -320
-1380 -374 -692 -253 -1056 -821 -1027 -1599 4 -99 13 -192 27 -253 103 -486
435 -889 890 -1082 190 -81 368 -116 584 -116 229 0 288 12 806 163 1092 318
2557 592 3890 727 901 91 1585 124 2560 124 778 0 1135 -11 1835 -60 2725
-187 5463 -817 7820 -1799 833 -347 1531 -689 2290 -1123 664 -380 838 -441
1204 -429 238 8 409 51 616 155 345 172 622 492 746 863 63 187 73 262 73 519
0 202 -3 252 -22 353 -83 439 -304 775 -680 1035 -243 168 -899 535 -1497 837
-2592 1308 -5547 2181 -8697 2569 -841 104 -1630 167 -2588 206 -335 14 -1527
20 -1900 10z"/>
<path d="M15860 16113 c-1667 -25 -3516 -216 -5360 -554 -625 -114 -1433 -283
-1595 -334 -371 -116 -650 -358 -781 -679 -129 -315 -138 -729 -24 -1024 60
-156 159 -310 273 -425 231 -233 518 -350 857 -351 161 0 295 26 680 129 469
126 1534 320 2490 454 955 133 1846 215 2885 263 358 17 1657 17 1995 0 1105
-55 1985 -151 2905 -318 2145 -390 4061 -1095 5876 -2164 470 -277 641 -340
929 -340 490 0 911 280 1097 730 71 171 97 364 82 606 -32 522 -229 816 -764
1146 -385 237 -1066 601 -1575 843 -2965 1410 -6251 2075 -9970 2018z"/>
</g>
</svg>
