<?xml version="1.0" standalone="no"?>
<!DOCTYPE svg PUBLIC "-//W3C//DTD SVG 20010904//EN"
 "http://www.w3.org/TR/2001/REC-SVG-20010904/DTD/svg10.dtd">
<svg version="1.0" xmlns="http://www.w3.org/2000/svg"
 width="225.000000pt" height="225.000000pt" viewBox="0 0 225.000000 225.000000"
 preserveAspectRatio="xMidYMid meet">

<g transform="translate(0.000000,225.000000) scale(0.100000,-0.100000)"
fill="#000000" stroke="none">
<path d="M0 1125 l0 -1125 1125 0 1125 0 0 1125 0 1125 -1125 0 -1125 0 0
-1125z m744 589 c8 -20 8 -708 0 -728 -5 -13 -22 -16 -85 -16 l-79 0 0 380 0
380 79 0 c63 0 80 -3 85 -16z m926 -364 l0 -380 -79 0 c-63 0 -80 3 -85 16 -8
20 -8 708 0 728 5 13 22 16 85 16 l79 0 0 -380z m-1160 45 l0 -195 -80 0 -80
0 0 195 0 195 80 0 80 0 0 -195z m1390 0 l0 -195 -80 0 -80 0 0 195 0 195 80
0 80 0 0 -195z m-925 -275 l0 -375 -82 -3 -83 -3 0 381 0 381 83 -3 82 -3 0
-375z m465 0 l0 -381 -82 3 -83 3 -3 365 c-1 201 0 371 3 377 3 9 30 13 85 13
l80 0 0 -380z m-235 -255 l0 -380 -60 -3 c-32 -2 -69 -1 -82 3 l-23 5 0 374
c0 290 3 376 13 380 6 2 44 4 82 3 l70 -2 0 -380z"/>
</g>
</svg>
