<?xml version="1.0" standalone="no"?>
<!DOCTYPE svg PUBLIC "-//W3C//DTD SVG 20010904//EN"
 "http://www.w3.org/TR/2001/REC-SVG-20010904/DTD/svg10.dtd">
<svg version="1.0" xmlns="http://www.w3.org/2000/svg"
 width="256.000000pt" height="256.000000pt" viewBox="0 0 256.000000 256.000000"
 preserveAspectRatio="xMidYMid meet">

<g transform="translate(0.000000,256.000000) scale(0.100000,-0.100000)"
fill="#000000" stroke="none">
<path d="M65 2540 c15 -6 10 -8 -20 -7 l-40 2 -3 -1267 -2 -1268 1280 0 1280
0 0 1269 c0 836 -3 1272 -10 1276 -5 3 -15 3 -22 -1 -17 -10 -78 -12 -78 -2 0
11 -48 10 -70 -2 -13 -7 -21 -7 -25 0 -3 5 -21 10 -38 9 -27 0 -29 -2 -12 -9
14 -6 8 -7 -21 -5 -23 1 -47 6 -53 9 -6 4 -16 4 -23 0 -17 -10 -78 -12 -78 -2
0 11 -48 10 -70 -2 -13 -7 -21 -7 -25 0 -3 5 -21 10 -38 9 -27 0 -29 -2 -12
-9 14 -6 8 -7 -21 -5 -23 1 -47 6 -53 9 -6 4 -16 4 -23 0 -17 -10 -78 -12 -78
-2 0 11 -48 10 -70 -2 -13 -7 -21 -7 -25 0 -3 5 -21 10 -38 9 -27 0 -29 -2
-12 -9 14 -6 8 -7 -21 -5 -23 1 -47 6 -53 9 -6 4 -16 4 -23 0 -17 -10 -78 -12
-78 -2 0 11 -48 10 -70 -2 -13 -7 -21 -7 -25 0 -3 5 -21 10 -38 9 -27 0 -29
-2 -12 -9 14 -6 8 -7 -21 -5 -23 1 -47 6 -53 9 -6 4 -16 4 -23 0 -17 -10 -78
-12 -78 -2 0 11 -48 10 -70 -2 -13 -7 -21 -7 -25 0 -3 5 -21 10 -38 9 -27 0
-29 -2 -12 -9 14 -6 8 -7 -21 -5 -23 1 -47 6 -53 9 -6 4 -16 4 -23 0 -17 -10
-78 -12 -78 -2 0 11 -48 10 -70 -2 -13 -7 -21 -7 -25 0 -3 5 -21 10 -38 9 -27
0 -29 -2 -12 -9 14 -6 8 -7 -21 -5 -23 1 -47 6 -53 9 -6 4 -16 4 -23 0 -17
-10 -78 -12 -78 -2 0 11 -48 10 -70 -2 -13 -7 -21 -7 -25 0 -3 5 -21 10 -38 9
-27 0 -29 -2 -12 -9 14 -6 8 -7 -21 -5 -23 1 -47 6 -53 9 -6 4 -16 4 -23 0
-17 -10 -78 -12 -78 -2 0 11 -48 10 -70 -2 -13 -7 -21 -7 -25 0 -3 5 -21 10
-38 9 -27 0 -29 -2 -12 -9z m118 -7 c-7 -2 -19 -2 -25 0 -7 3 -2 5 12 5 14 0
19 -2 13 -5z m320 0 c-7 -2 -19 -2 -25 0 -7 3 -2 5 12 5 14 0 19 -2 13 -5z
m320 0 c-7 -2 -19 -2 -25 0 -7 3 -2 5 12 5 14 0 19 -2 13 -5z m320 0 c-7 -2
-19 -2 -25 0 -7 3 -2 5 12 5 14 0 19 -2 13 -5z m320 0 c-7 -2 -19 -2 -25 0 -7
3 -2 5 12 5 14 0 19 -2 13 -5z m320 0 c-7 -2 -19 -2 -25 0 -7 3 -2 5 12 5 14
0 19 -2 13 -5z m320 0 c-7 -2 -19 -2 -25 0 -7 3 -2 5 12 5 14 0 19 -2 13 -5z
m320 0 c-7 -2 -19 -2 -25 0 -7 3 -2 5 12 5 14 0 19 -2 13 -5z m-558 -387 c14
-21 15 -100 13 -687 -3 -751 1 -713 -84 -787 -47 -42 -99 -62 -186 -70 -75 -6
-135 16 -182 68 -62 69 -69 152 -20 237 33 57 91 89 205 114 120 25 126 27
144 45 13 13 15 64 15 340 0 295 -2 325 -17 331 -16 6 -721 -131 -732 -143 -3
-3 -8 -222 -11 -487 l-5 -482 -29 -58 c-36 -75 -85 -111 -179 -132 -114 -26
-185 -9 -245 59 -37 43 -56 106 -48 159 19 115 94 167 299 207 105 21 97 -25
97 559 0 299 4 520 10 535 5 14 19 30 32 37 30 16 811 177 865 178 34 1 46 -4
58 -23z"/>
</g>
</svg>
