<?xml version="1.0" standalone="no"?>
<!DOCTYPE svg PUBLIC "-//W3C//DTD SVG 20010904//EN"
 "http://www.w3.org/TR/2001/REC-SVG-20010904/DTD/svg10.dtd">
<svg version="1.0" xmlns="http://www.w3.org/2000/svg"
 width="225.000000pt" height="225.000000pt" viewBox="0 0 225.000000 225.000000"
 preserveAspectRatio="xMidYMid meet">

<g transform="translate(0.000000,225.000000) scale(0.100000,-0.100000)"
fill="#000000" stroke="none">
<path d="M465 2239 c-215 -27 -360 -133 -420 -306 -42 -121 -47 -223 -42 -878
4 -663 5 -672 62 -788 37 -74 131 -169 200 -202 128 -60 128 -60 850 -60 723
0 746 2 863 58 82 40 169 126 209 209 57 118 58 139 58 868 -1 656 -1 666 -23
744 -12 44 -33 98 -47 122 -36 62 -126 146 -189 178 -114 58 -124 59 -816 62
-349 1 -666 -2 -705 -7z m1045 -614 c0 -120 1 -119 -105 -155 -77 -26 -146
-25 -280 5 -155 35 -200 33 -367 -22 -16 -5 -18 4 -18 105 l0 110 53 22 c77
34 194 38 326 11 57 -11 136 -21 176 -21 66 0 157 21 180 41 5 5 15 9 22 9 10
0 13 -25 13 -105z m0 -445 l0 -110 -229 0 c-232 0 -282 -6 -298 -38 -4 -9 -10
-129 -13 -267 l-5 -250 -110 0 -110 0 0 306 0 306 27 41 c32 48 85 92 130 109
22 8 126 12 321 12 l287 1 0 -110z"/>
</g>
</svg>
