<?xml version="1.0" standalone="no"?>
<!DOCTYPE svg PUBLIC "-//W3C//DTD SVG 20010904//EN"
 "http://www.w3.org/TR/2001/REC-SVG-20010904/DTD/svg10.dtd">
<svg version="1.0" xmlns="http://www.w3.org/2000/svg"
 width="960.000000pt" height="960.000000pt" viewBox="0 0 960.000000 960.000000"
 preserveAspectRatio="xMidYMid meet">

<g transform="translate(0.000000,960.000000) scale(0.100000,-0.100000)"
fill="#000000" stroke="none">
<path d="M4555 9594 c-948 -51 -1879 -388 -2630 -952 -267 -200 -601 -515
-797 -752 -403 -487 -686 -992 -878 -1570 -404 -1213 -311 -2530 259 -3668
472 -942 1245 -1706 2195 -2168 1339 -651 2913 -642 4244 25 1352 678 2319
1973 2576 3451 117 669 95 1334 -65 1990 -171 702 -508 1363 -988 1940 -125
151 -435 460 -586 586 -322 266 -600 447 -970 629 -539 266 -1081 418 -1685
475 -121 11 -556 20 -675 14z m605 -2309 c527 -80 995 -310 1372 -674 227
-219 381 -428 518 -705 119 -241 195 -482 237 -756 24 -161 24 -539 0 -700
-82 -535 -312 -1005 -676 -1382 -207 -215 -407 -365 -661 -497 -258 -133 -503
-212 -800 -258 -161 -24 -539 -24 -700 0 -431 66 -820 229 -1167 488 -126 94
-388 356 -482 482 -264 353 -420 728 -488 1167 -25 162 -25 540 0 700 85 548
310 1004 686 1392 204 211 412 366 660 492 304 155 574 232 946 270 87 9 454
-4 555 -19z"/>
<path d="M4585 7080 c-804 -86 -1490 -561 -1840 -1275 -142 -290 -218 -592
-231 -920 -34 -826 387 -1607 1102 -2043 246 -151 521 -251 829 -304 174 -29
511 -31 685 -4 489 77 911 285 1258 620 364 352 587 780 673 1291 30 173 32
502 6 675 -154 1006 -910 1775 -1907 1940 -142 24 -444 34 -575 20z m413
-1627 c574 -324 1044 -594 1044 -598 1 -8 -2096 -1305 -2108 -1305 -2 0 -4
563 -4 1251 0 997 3 1250 13 1246 6 -3 482 -270 1055 -594z"/>
</g>
</svg>
